# xmcd
#
# Track frame offsets:
#	150
#	12592
#	28572
#	45912
#	61942
#	72832
#	90142
#	112207
#	137412
#	151192
#	172082
#	185425
#	202035
#	215217
#	232090
#	245695
#	265785
#	280412
#
# Disc length: 4131 seconds
#
# Revision: 0
# Processed by: cddbd v1.4PL0 Copyright (c) Steve Scherf et al.
# Submitted via: EasyCDDAExtractor 4.6.0.1
#
DISCID=05102112
DTITLE=KONINKLIJKE MILITAIRE KAPEL - Something Special with Ted and Michael
DYEAR=1996
DGENRE=
TTITLE0=The Exciting new Harmony Band
TTITLE1=Blue Air
TTITLE2=Fuge à la mode
TTITLE3=Folk Air out of Airs d'ambiance
TTITLE4=Rock Train
TTITLE5=Pavane in Blue
TTITLE6=Sparkling drums
TTITLE7=Scottish Souvenir
TTITLE8=Rondo for Rosie
TTITLE9=Air Poetique for Horn and Band
TTITLE10=Yankee doodle Rag
TTITLE11=Intermezzo Beautiful day
TTITLE12=Rag of the jolly good fellows
TTITLE13=Hymn of the friendships
TTITLE14=Kodomo no hi
TTITLE15=Don't look that blue again
TTITLE16=Air from New broque Suite
TTITLE17=Choral and Rock Out
EXTD=
EXTT0=
EXTT1=
EXTT2=
EXTT3=
EXTT4=
EXTT5=
EXTT6=
EXTT7=
EXTT8=
EXTT9=
EXTT10=
EXTT11=
EXTT12=
EXTT13=
EXTT14=
EXTT15=
EXTT16=
EXTT17=
PLAYORDER=
